<?xml version="1.0" encoding="iso-8859-1"?>
<!-- Generator: Adobe Illustrator 19.0.0, SVG Export Plug-In . SVG Version: 6.00 Build 0)  -->
<svg version="1.1" id="Layer_1" xmlns="http://www.w3.org/2000/svg" xmlns:xlink="http://www.w3.org/1999/xlink" x="0px" y="0px"
	 viewBox="0 0 512 512" style="enable-background:new 0 0 512 512;" xml:space="preserve">
<g>
	<g>
		<path d="M497,466H388.42c0.09-0.255,0.186-0.507,0.272-0.765c0.121-0.364,0.229-0.733,0.321-1.105l29.875-119.5
			c6.045-19.042-1.27-39.967-17.928-51.072l-56.945-37.959l14.316-28.633l15.851,15.851C382.684,251.318,393.983,256,406,256h61
			c24.813,0,45-20.187,45-45s-20.187-45-45-45h-42.365l-30.112-30.112C425.973,134.057,451,107.901,451,76c0-33.084-26.916-60-60-60
			s-60,26.916-60,60c0,3.855,0.38,7.621,1.078,11.275L231.571,47.073c-7.691-3.077-16.421,0.665-19.498,8.356
			c-3.077,7.692,0.665,16.421,8.356,19.498L298.111,106H256c-6.955,0-13.914,1.642-20.126,4.748l-60,30
			c-4.698,2.349-8.874,5.437-12.404,9.119l-15.439-31.654c-3.632-7.446-12.61-10.537-20.058-6.906L20.119,163.911
			c-7.44,3.629-10.538,12.613-6.906,20.058l65.756,134.819c3.628,7.438,12.603,10.541,20.058,6.906l107.855-52.604
			c7.44-3.629,10.538-12.613,6.906-20.058l-13.301-27.271c5.425-0.547,10.761-2.068,15.641-4.508L266.617,196h6.567
			c-6.77,13.54-44.425,88.851-51.612,103.224L112.756,352.57c-0.592,0.291-1.165,0.62-1.714,0.986
			c-20.691,13.787-26.28,41.7-12.48,62.41c13.633,20.432,41.018,26.075,61.543,13.034l119.244-59.622
			c4.581-2.29,12.281-9.034,16.903-18.251l7.203-14.407l19.878,13.252l-20.265,87.531c-3.037,9.65-2.63,19.597,0.529,28.498H15
			c-8.284,0-15,6.716-15,15S6.716,496,15,496c1.857,0,439.27,0,482,0c8.284,0,15-6.716,15-15S505.284,466,497,466z M407.815,191.605
			c2.813,2.814,6.628,4.395,10.607,4.395H467c8.271,0,15,6.729,15,15s-6.729,15-15,15h-61c-3.945,0-7.811-1.602-10.604-4.396
			l-22.922-22.922l13.778-27.557c0.122-0.244,0.229-0.492,0.346-0.737L407.815,191.605z M391,46c16.542,0,30,13.458,30,30
			s-13.458,30-30,30s-30-13.458-30-30S374.458,46,391,46z M99.356,292.154L46.752,184.299l80.892-39.453l52.604,107.855
			L99.356,292.154z M269.428,337.693c-1.058,2.109-2.596,3.943-4.476,5.342l-119.02,59.51c-0.56,0.28-1.101,0.594-1.621,0.941
			c-6.888,4.598-16.208,2.705-20.79-4.163c-4.462-6.696-2.828-15.612,3.481-20.326l112.323-55.065
			c2.95-1.447,5.344-3.822,6.813-6.761l7.473-14.946c2.209,2.294,4.683,4.388,7.426,6.217l17.26,11.507L269.428,337.693z
			 M341.255,465.233c-7.849-2.619-12.105-11.132-9.488-18.978c0.335-1-1.225,5.591,23.134-99.626
			c1.408-6.083-1.098-12.401-6.293-15.864l-70.924-47.283c-6.284-4.192-8.478-12.442-5.103-19.192l38.291-76.582
			c4.919-9.838-2.15-21.708-13.416-21.708h-34.38c-2.329,0-4.626,0.542-6.709,1.584l-53.656,26.835
			c-7.187,3.593-16.303,0.942-20.129-6.709c-3.71-7.421-0.712-16.419,6.709-20.129l60-30c2.068-1.034,4.388-1.581,6.71-1.581h90
			c11.483,0,18.324,12.202,13.35,21.85l-18.404,36.803c-0.009,0.017-0.017,0.034-0.025,0.051l-29.664,59.319
			c-3.373,6.745-1.18,15.003,5.096,19.19l67.969,45.308c5.612,3.741,8.042,10.828,5.91,17.234
			c-0.279,0.834,1.383-5.712-30.157,120.446C357.226,463.921,348.802,467.759,341.255,465.233z"/>
	</g>
</g>
<g>
</g>
<g>
</g>
<g>
</g>
<g>
</g>
<g>
</g>
<g>
</g>
<g>
</g>
<g>
</g>
<g>
</g>
<g>
</g>
<g>
</g>
<g>
</g>
<g>
</g>
<g>
</g>
<g>
</g>
</svg>
